<svg width="185" height="203" viewBox="0 0 185 203" fill="none" xmlns="http://www.w3.org/2000/svg">
<path fill-rule="evenodd" clip-rule="evenodd" d="M116.859 2.30214C114.856 -0.0831344 111.435 -0.695906 108.729 0.845791L106.201 2.28624L106.168 2.28027L106.163 2.30751L78.9337 17.8209L85.3171 29.0343L103.101 18.9022L98.7265 42.6127L111.411 44.9551L115.81 21.1146L128.91 36.7135L138.786 28.4128L118.845 4.66718L118.853 4.62266L118.799 4.61269L116.859 2.30214ZM78.4738 202.561C85.0332 202.561 90.3506 197.375 90.3506 190.979C90.3506 184.583 85.0332 179.397 78.4738 179.397C71.9144 179.397 66.597 184.583 66.597 190.979C66.597 197.375 71.9144 202.561 78.4738 202.561ZM94.4467 139.002L90.1678 162.87L77.4713 160.592L81.723 136.876L64.0017 147.056L57.5784 135.866L84.6969 120.287L84.703 120.253L84.7436 120.26L87.2894 118.798C89.9855 117.249 93.4025 117.845 95.4157 120.215L97.3799 122.528L97.3995 122.531L97.3966 122.547L117.517 146.234L107.687 154.59L94.4467 139.002ZM104.722 82.0286L100.446 105.881L87.7493 103.604L91.9847 79.9758L74.3198 90.0725L67.9208 78.868L94.9529 63.4173L94.9808 63.2619L95.1665 63.2952L97.6387 61.8822C100.334 60.3413 103.745 60.9407 105.755 63.3083L107.643 65.5335L107.677 65.5396L107.672 65.5678L127.781 89.2596L117.948 97.6118L104.722 82.0286ZM21.4698 176.199L21.3986 176.248L21.3407 176.162L18.7104 175.407C15.9271 174.607 14.0846 171.966 14.2945 169.076L16.6327 136.894L28.8437 137.782L27.4212 157.362L46.4451 144.454L53.3173 154.591L34.6645 167.247L53.6943 172.713L50.3151 184.486L21.4698 176.199ZM147.637 189.572L147.639 189.574L147.636 189.577L146.778 192.401C145.95 195.125 143.355 196.919 140.515 196.73L137.833 196.552L137.662 196.674L137.562 196.534L107.666 194.548L108.477 182.327L128.402 183.65L115.41 165.378L125.387 158.278L138.672 176.964L144.422 158.042L156.136 161.604L147.637 189.572ZM182.68 123.148L182.717 123.154L182.709 123.201L184.134 125.754C185.594 128.371 184.999 131.655 182.714 133.593L180.56 135.42L180.545 135.504L180.475 135.492L157.24 155.196L149.135 145.63L164.422 132.666L141.532 128.637L143.704 116.286L166.761 120.345L157.092 103.017L168.037 96.9048L182.68 123.148ZM159.12 69.3209L138.444 80.451L132.504 69.4084L152.825 58.4695L134.148 50.9115L138.848 39.2867L167.17 50.7475L167.296 50.6796L167.378 50.8315L169.942 51.869C172.693 52.9825 174.287 55.8743 173.759 58.7964L173.232 61.7149L173.236 61.7223L173.23 61.7254L167.908 91.184L155.573 88.9539L159.12 69.3209ZM20.5075 95.1877L43.4446 99.0922L41.342 111.454L18.2076 107.516L28.073 124.906L17.1715 131.096L2.25439 104.801L2.24396 104.799L2.24613 104.786L0.816925 102.267C-0.661342 99.6609 -0.0901086 96.3729 2.18035 94.4189L4.32311 92.5748L4.3466 92.4367L4.46097 92.4561L27.4062 72.709L35.5808 82.2153L20.5075 95.1877ZM55.1549 41.7202L70.4177 58.7304L61.0898 67.1069L45.4735 49.7029L41.8376 69.5274L29.5087 67.2644L34.8924 37.9104L34.8651 37.88L34.9044 37.8447L35.4487 34.8769C35.977 31.9965 38.428 29.8656 41.3528 29.7439L44.0503 29.6317L44.193 29.5035L44.2988 29.6213L74.9387 28.3464L75.4596 40.8754L55.1549 41.7202Z" fill="white"/>
</svg>
